<mxfile host="app.diagrams.net" modified="2023-02-08T03:34:04.111Z" agent="5.0 (Windows NT 10.0; Win64; x64) AppleWebKit/537.36 (KHTML, like Gecko) Chrome/109.0.0.0 Safari/537.36" etag="S82xqQv-fpPcq3JQLYYs" version="20.8.18" type="github" pages="4">
  <diagram name="Flow" id="SFtcmK7Nqqrt-ngyzojN">
    <mxGraphModel dx="1434" dy="756" grid="1" gridSize="10" guides="1" tooltips="1" connect="1" arrows="1" fold="1" page="1" pageScale="1" pageWidth="1169" pageHeight="827" math="0" shadow="0">
      <root>
        <mxCell id="0" />
        <mxCell id="1" parent="0" />
        <mxCell id="UZKCKIMM1cQln6kZ_rzy-1" value="DB" style="shape=cylinder3;whiteSpace=wrap;html=1;boundedLbl=1;backgroundOutline=1;size=15;" parent="1" vertex="1">
          <mxGeometry x="876" y="170" width="60" height="80" as="geometry" />
        </mxCell>
        <mxCell id="UZKCKIMM1cQln6kZ_rzy-2" value="DAO" style="whiteSpace=wrap;html=1;aspect=fixed;" parent="1" vertex="1">
          <mxGeometry x="736" y="170" width="80" height="80" as="geometry" />
        </mxCell>
        <mxCell id="UZKCKIMM1cQln6kZ_rzy-3" value="Service" style="whiteSpace=wrap;html=1;aspect=fixed;" parent="1" vertex="1">
          <mxGeometry x="596" y="170" width="80" height="80" as="geometry" />
        </mxCell>
        <mxCell id="UZKCKIMM1cQln6kZ_rzy-4" value="JSP" style="whiteSpace=wrap;html=1;aspect=fixed;" parent="1" vertex="1">
          <mxGeometry x="166" y="350" width="80" height="80" as="geometry" />
        </mxCell>
        <mxCell id="UZKCKIMM1cQln6kZ_rzy-5" value="Dispatcher Servlet(D.S.)" style="whiteSpace=wrap;html=1;aspect=fixed;" parent="1" vertex="1">
          <mxGeometry x="270" y="170" width="80" height="80" as="geometry" />
        </mxCell>
        <mxCell id="UZKCKIMM1cQln6kZ_rzy-6" value="IRV(Internal Resource View Resolver)" style="whiteSpace=wrap;html=1;aspect=fixed;" parent="1" vertex="1">
          <mxGeometry x="331" y="350" width="80" height="80" as="geometry" />
        </mxCell>
        <mxCell id="UZKCKIMM1cQln6kZ_rzy-7" value="" style="endArrow=classic;html=1;rounded=0;startArrow=none;" parent="1" source="UZKCKIMM1cQln6kZ_rzy-10" edge="1">
          <mxGeometry width="50" height="50" relative="1" as="geometry">
            <mxPoint x="476" y="260" as="sourcePoint" />
            <mxPoint x="516" y="210" as="targetPoint" />
          </mxGeometry>
        </mxCell>
        <mxCell id="UZKCKIMM1cQln6kZ_rzy-8" value="" style="endArrow=classic;html=1;rounded=0;exitX=0;exitY=0;exitDx=0;exitDy=52.5;exitPerimeter=0;entryX=1.038;entryY=0.663;entryDx=0;entryDy=0;entryPerimeter=0;" parent="1" source="UZKCKIMM1cQln6kZ_rzy-1" target="UZKCKIMM1cQln6kZ_rzy-2" edge="1">
          <mxGeometry relative="1" as="geometry">
            <mxPoint x="696" y="360" as="sourcePoint" />
            <mxPoint x="796" y="360" as="targetPoint" />
          </mxGeometry>
        </mxCell>
        <mxCell id="UZKCKIMM1cQln6kZ_rzy-9" value="" style="shape=message;html=1;outlineConnect=0;" parent="UZKCKIMM1cQln6kZ_rzy-8" vertex="1">
          <mxGeometry width="20" height="14" relative="1" as="geometry">
            <mxPoint x="-10" y="-7" as="offset" />
          </mxGeometry>
        </mxCell>
        <mxCell id="UZKCKIMM1cQln6kZ_rzy-10" value="Controller" style="whiteSpace=wrap;html=1;aspect=fixed;" parent="1" vertex="1">
          <mxGeometry x="450" y="170" width="80" height="80" as="geometry" />
        </mxCell>
        <mxCell id="UZKCKIMM1cQln6kZ_rzy-11" value="" style="endArrow=classic;html=1;rounded=0;entryX=0;entryY=0.5;entryDx=0;entryDy=0;" parent="1" source="UZKCKIMM1cQln6kZ_rzy-5" target="UZKCKIMM1cQln6kZ_rzy-10" edge="1">
          <mxGeometry width="50" height="50" relative="1" as="geometry">
            <mxPoint x="396" y="260" as="sourcePoint" />
            <mxPoint x="446" y="210" as="targetPoint" />
          </mxGeometry>
        </mxCell>
        <mxCell id="UZKCKIMM1cQln6kZ_rzy-12" value="" style="endArrow=classic;html=1;rounded=0;entryX=0;entryY=0.5;entryDx=0;entryDy=0;" parent="1" source="UZKCKIMM1cQln6kZ_rzy-10" target="UZKCKIMM1cQln6kZ_rzy-3" edge="1">
          <mxGeometry width="50" height="50" relative="1" as="geometry">
            <mxPoint x="530" y="260" as="sourcePoint" />
            <mxPoint x="596" y="210" as="targetPoint" />
          </mxGeometry>
        </mxCell>
        <mxCell id="UZKCKIMM1cQln6kZ_rzy-13" value="" style="endArrow=classic;html=1;rounded=0;entryX=0;entryY=0.5;entryDx=0;entryDy=0;" parent="1" source="UZKCKIMM1cQln6kZ_rzy-3" target="UZKCKIMM1cQln6kZ_rzy-2" edge="1">
          <mxGeometry width="50" height="50" relative="1" as="geometry">
            <mxPoint x="676" y="260" as="sourcePoint" />
            <mxPoint x="736" y="210" as="targetPoint" />
          </mxGeometry>
        </mxCell>
        <mxCell id="UZKCKIMM1cQln6kZ_rzy-14" value="" style="endArrow=classic;html=1;rounded=0;entryX=0;entryY=0.5;entryDx=0;entryDy=0;entryPerimeter=0;" parent="1" source="UZKCKIMM1cQln6kZ_rzy-2" target="UZKCKIMM1cQln6kZ_rzy-1" edge="1">
          <mxGeometry width="50" height="50" relative="1" as="geometry">
            <mxPoint x="816" y="260" as="sourcePoint" />
            <mxPoint x="886.7106781186548" y="210" as="targetPoint" />
          </mxGeometry>
        </mxCell>
        <mxCell id="UZKCKIMM1cQln6kZ_rzy-15" value="" style="endArrow=classic;html=1;rounded=0;exitX=0;exitY=0.75;exitDx=0;exitDy=0;entryX=1;entryY=0.75;entryDx=0;entryDy=0;" parent="1" source="UZKCKIMM1cQln6kZ_rzy-2" target="UZKCKIMM1cQln6kZ_rzy-3" edge="1">
          <mxGeometry relative="1" as="geometry">
            <mxPoint x="686" y="310" as="sourcePoint" />
            <mxPoint x="786" y="310" as="targetPoint" />
          </mxGeometry>
        </mxCell>
        <mxCell id="UZKCKIMM1cQln6kZ_rzy-16" value="" style="shape=message;html=1;outlineConnect=0;" parent="UZKCKIMM1cQln6kZ_rzy-15" vertex="1">
          <mxGeometry width="20" height="14" relative="1" as="geometry">
            <mxPoint x="-10" y="-7" as="offset" />
          </mxGeometry>
        </mxCell>
        <mxCell id="UZKCKIMM1cQln6kZ_rzy-17" value="" style="endArrow=classic;html=1;rounded=0;exitX=0;exitY=0.75;exitDx=0;exitDy=0;entryX=1;entryY=0.75;entryDx=0;entryDy=0;" parent="1" source="UZKCKIMM1cQln6kZ_rzy-3" target="UZKCKIMM1cQln6kZ_rzy-10" edge="1">
          <mxGeometry relative="1" as="geometry">
            <mxPoint x="686" y="310" as="sourcePoint" />
            <mxPoint x="786" y="310" as="targetPoint" />
          </mxGeometry>
        </mxCell>
        <mxCell id="UZKCKIMM1cQln6kZ_rzy-18" value="" style="shape=message;html=1;outlineConnect=0;" parent="UZKCKIMM1cQln6kZ_rzy-17" vertex="1">
          <mxGeometry width="20" height="14" relative="1" as="geometry">
            <mxPoint x="-10" y="-7" as="offset" />
          </mxGeometry>
        </mxCell>
        <mxCell id="UZKCKIMM1cQln6kZ_rzy-19" value="" style="endArrow=classic;html=1;rounded=0;exitX=0;exitY=0.75;exitDx=0;exitDy=0;entryX=1;entryY=0.75;entryDx=0;entryDy=0;" parent="1" source="UZKCKIMM1cQln6kZ_rzy-10" target="UZKCKIMM1cQln6kZ_rzy-5" edge="1">
          <mxGeometry relative="1" as="geometry">
            <mxPoint x="686" y="310" as="sourcePoint" />
            <mxPoint x="786" y="310" as="targetPoint" />
          </mxGeometry>
        </mxCell>
        <mxCell id="UZKCKIMM1cQln6kZ_rzy-20" value="" style="shape=message;html=1;outlineConnect=0;" parent="UZKCKIMM1cQln6kZ_rzy-19" vertex="1">
          <mxGeometry width="20" height="14" relative="1" as="geometry">
            <mxPoint x="-10" y="-7" as="offset" />
          </mxGeometry>
        </mxCell>
        <mxCell id="UZKCKIMM1cQln6kZ_rzy-21" value="ModelAndView" style="text;html=1;align=center;verticalAlign=middle;resizable=0;points=[];autosize=1;strokeColor=none;fillColor=none;" parent="1" vertex="1">
          <mxGeometry x="351" y="250" width="100" height="30" as="geometry" />
        </mxCell>
        <mxCell id="UZKCKIMM1cQln6kZ_rzy-22" value="" style="endArrow=classic;html=1;rounded=0;exitX=0.75;exitY=1;exitDx=0;exitDy=0;entryX=0.75;entryY=0;entryDx=0;entryDy=0;startArrow=none;" parent="1" source="UZKCKIMM1cQln6kZ_rzy-27" target="UZKCKIMM1cQln6kZ_rzy-6" edge="1">
          <mxGeometry width="50" height="50" relative="1" as="geometry">
            <mxPoint x="716" y="340" as="sourcePoint" />
            <mxPoint x="386" y="350" as="targetPoint" />
          </mxGeometry>
        </mxCell>
        <mxCell id="UZKCKIMM1cQln6kZ_rzy-23" value="Prefix + ViewName + Suffix" style="text;html=1;align=center;verticalAlign=middle;resizable=0;points=[];autosize=1;strokeColor=none;fillColor=none;" parent="1" vertex="1">
          <mxGeometry x="416" y="375" width="170" height="30" as="geometry" />
        </mxCell>
        <mxCell id="UZKCKIMM1cQln6kZ_rzy-24" value="" style="endArrow=classic;html=1;rounded=0;exitX=0.5;exitY=0;exitDx=0;exitDy=0;exitPerimeter=0;entryX=0.5;entryY=1;entryDx=0;entryDy=0;" parent="1" source="UZKCKIMM1cQln6kZ_rzy-6" target="UZKCKIMM1cQln6kZ_rzy-5" edge="1">
          <mxGeometry width="50" height="50" relative="1" as="geometry">
            <mxPoint x="716" y="340" as="sourcePoint" />
            <mxPoint x="766" y="290" as="targetPoint" />
          </mxGeometry>
        </mxCell>
        <mxCell id="UZKCKIMM1cQln6kZ_rzy-25" value="" style="endArrow=classic;html=1;rounded=0;exitX=0.35;exitY=1.025;exitDx=0;exitDy=0;entryX=0.863;entryY=-0.025;entryDx=0;entryDy=0;exitPerimeter=0;entryPerimeter=0;startArrow=none;" parent="1" source="UZKCKIMM1cQln6kZ_rzy-29" target="UZKCKIMM1cQln6kZ_rzy-4" edge="1">
          <mxGeometry width="50" height="50" relative="1" as="geometry">
            <mxPoint x="716" y="340" as="sourcePoint" />
            <mxPoint x="766" y="290" as="targetPoint" />
          </mxGeometry>
        </mxCell>
        <mxCell id="UZKCKIMM1cQln6kZ_rzy-26" value="" style="endArrow=none;html=1;rounded=0;exitX=0.75;exitY=1;exitDx=0;exitDy=0;entryX=0.75;entryY=0;entryDx=0;entryDy=0;" parent="1" source="UZKCKIMM1cQln6kZ_rzy-5" target="UZKCKIMM1cQln6kZ_rzy-27" edge="1">
          <mxGeometry width="50" height="50" relative="1" as="geometry">
            <mxPoint x="330" y="250" as="sourcePoint" />
            <mxPoint x="391" y="350" as="targetPoint" />
          </mxGeometry>
        </mxCell>
        <mxCell id="UZKCKIMM1cQln6kZ_rzy-27" value="View" style="text;html=1;align=center;verticalAlign=middle;resizable=0;points=[];autosize=1;strokeColor=none;fillColor=none;" parent="1" vertex="1">
          <mxGeometry x="336" y="290" width="50" height="30" as="geometry" />
        </mxCell>
        <mxCell id="UZKCKIMM1cQln6kZ_rzy-28" value="" style="endArrow=none;html=1;rounded=0;exitX=0.35;exitY=1.025;exitDx=0;exitDy=0;entryX=0.863;entryY=-0.025;entryDx=0;entryDy=0;exitPerimeter=0;entryPerimeter=0;" parent="1" source="UZKCKIMM1cQln6kZ_rzy-5" target="UZKCKIMM1cQln6kZ_rzy-29" edge="1">
          <mxGeometry width="50" height="50" relative="1" as="geometry">
            <mxPoint x="298" y="252" as="sourcePoint" />
            <mxPoint x="235.03999999999996" y="348" as="targetPoint" />
          </mxGeometry>
        </mxCell>
        <mxCell id="UZKCKIMM1cQln6kZ_rzy-29" value="Model" style="text;html=1;align=center;verticalAlign=middle;resizable=0;points=[];autosize=1;strokeColor=none;fillColor=none;" parent="1" vertex="1">
          <mxGeometry x="226" y="290" width="60" height="30" as="geometry" />
        </mxCell>
        <mxCell id="UZKCKIMM1cQln6kZ_rzy-30" value="" style="endArrow=classic;html=1;rounded=0;exitX=0.363;exitY=-0.025;exitDx=0;exitDy=0;exitPerimeter=0;entryX=0.138;entryY=1.025;entryDx=0;entryDy=0;entryPerimeter=0;" parent="1" source="UZKCKIMM1cQln6kZ_rzy-4" target="UZKCKIMM1cQln6kZ_rzy-5" edge="1">
          <mxGeometry width="50" height="50" relative="1" as="geometry">
            <mxPoint x="176" y="320" as="sourcePoint" />
            <mxPoint x="226" y="270" as="targetPoint" />
          </mxGeometry>
        </mxCell>
        <mxCell id="UZKCKIMM1cQln6kZ_rzy-31" value="" style="endArrow=classic;html=1;rounded=0;exitX=0;exitY=0.75;exitDx=0;exitDy=0;" parent="1" source="UZKCKIMM1cQln6kZ_rzy-5" edge="1">
          <mxGeometry width="50" height="50" relative="1" as="geometry">
            <mxPoint x="716" y="340" as="sourcePoint" />
            <mxPoint x="76" y="230" as="targetPoint" />
          </mxGeometry>
        </mxCell>
        <mxCell id="UZKCKIMM1cQln6kZ_rzy-32" value="" style="endArrow=classic;html=1;rounded=0;entryX=0;entryY=0.25;entryDx=0;entryDy=0;" parent="1" target="UZKCKIMM1cQln6kZ_rzy-5" edge="1">
          <mxGeometry width="50" height="50" relative="1" as="geometry">
            <mxPoint x="76" y="190" as="sourcePoint" />
            <mxPoint x="676" y="250" as="targetPoint" />
          </mxGeometry>
        </mxCell>
        <mxCell id="UZKCKIMM1cQln6kZ_rzy-33" value="요청정보&lt;br&gt;URL(ip:port), Method, [Parameter]" style="text;html=1;align=center;verticalAlign=middle;resizable=0;points=[];autosize=1;strokeColor=none;fillColor=none;" parent="1" vertex="1">
          <mxGeometry x="70" y="110" width="200" height="40" as="geometry" />
        </mxCell>
        <mxCell id="UZKCKIMM1cQln6kZ_rzy-34" value="Request&lt;br&gt;객체" style="ellipse;whiteSpace=wrap;html=1;aspect=fixed;" parent="1" vertex="1">
          <mxGeometry x="106" y="160" width="50" height="50" as="geometry" />
        </mxCell>
        <mxCell id="UZKCKIMM1cQln6kZ_rzy-35" value="Response&lt;br&gt;객체" style="ellipse;whiteSpace=wrap;html=1;aspect=fixed;" parent="1" vertex="1">
          <mxGeometry x="176" y="160" width="50" height="50" as="geometry" />
        </mxCell>
        <mxCell id="UZKCKIMM1cQln6kZ_rzy-36" value="Fowarding Redirect" style="text;html=1;align=center;verticalAlign=middle;resizable=0;points=[];autosize=1;strokeColor=none;fillColor=none;" parent="1" vertex="1">
          <mxGeometry x="136" y="50" width="130" height="30" as="geometry" />
        </mxCell>
        <mxCell id="UZKCKIMM1cQln6kZ_rzy-37" value="응답 또는 Redirect" style="text;html=1;align=center;verticalAlign=middle;resizable=0;points=[];autosize=1;strokeColor=none;fillColor=none;" parent="1" vertex="1">
          <mxGeometry x="110" y="230" width="120" height="30" as="geometry" />
        </mxCell>
        <mxCell id="UZKCKIMM1cQln6kZ_rzy-38" value="" style="edgeStyle=orthogonalEdgeStyle;rounded=0;orthogonalLoop=1;jettySize=auto;html=1;" parent="1" source="UZKCKIMM1cQln6kZ_rzy-40" target="UZKCKIMM1cQln6kZ_rzy-42" edge="1">
          <mxGeometry relative="1" as="geometry" />
        </mxCell>
        <mxCell id="UZKCKIMM1cQln6kZ_rzy-39" value="" style="edgeStyle=orthogonalEdgeStyle;rounded=0;orthogonalLoop=1;jettySize=auto;html=1;" parent="1" source="UZKCKIMM1cQln6kZ_rzy-40" target="UZKCKIMM1cQln6kZ_rzy-43" edge="1">
          <mxGeometry relative="1" as="geometry" />
        </mxCell>
        <mxCell id="UZKCKIMM1cQln6kZ_rzy-40" value="List Page" style="whiteSpace=wrap;html=1;aspect=fixed;" parent="1" vertex="1">
          <mxGeometry x="140" y="520" width="80" height="80" as="geometry" />
        </mxCell>
        <mxCell id="UZKCKIMM1cQln6kZ_rzy-41" value="" style="edgeStyle=orthogonalEdgeStyle;rounded=0;orthogonalLoop=1;jettySize=auto;html=1;" parent="1" source="UZKCKIMM1cQln6kZ_rzy-42" target="UZKCKIMM1cQln6kZ_rzy-47" edge="1">
          <mxGeometry relative="1" as="geometry" />
        </mxCell>
        <mxCell id="UZKCKIMM1cQln6kZ_rzy-42" value="Detail Page" style="whiteSpace=wrap;html=1;aspect=fixed;" parent="1" vertex="1">
          <mxGeometry x="311" y="520" width="80" height="80" as="geometry" />
        </mxCell>
        <mxCell id="UZKCKIMM1cQln6kZ_rzy-43" value="Add Page" style="whiteSpace=wrap;html=1;aspect=fixed;" parent="1" vertex="1">
          <mxGeometry x="140" y="680" width="80" height="80" as="geometry" />
        </mxCell>
        <mxCell id="UZKCKIMM1cQln6kZ_rzy-44" value="" style="endArrow=classic;html=1;rounded=0;exitX=0.008;exitY=0.595;exitDx=0;exitDy=0;exitPerimeter=0;entryX=0.017;entryY=0.561;entryDx=0;entryDy=0;entryPerimeter=0;dashed=1;" parent="1" source="UZKCKIMM1cQln6kZ_rzy-43" target="UZKCKIMM1cQln6kZ_rzy-40" edge="1">
          <mxGeometry width="50" height="50" relative="1" as="geometry">
            <mxPoint x="140" y="720" as="sourcePoint" />
            <mxPoint x="190" y="670" as="targetPoint" />
            <Array as="points">
              <mxPoint x="80" y="650" />
            </Array>
          </mxGeometry>
        </mxCell>
        <mxCell id="UZKCKIMM1cQln6kZ_rzy-45" value="" style="endArrow=classic;html=1;rounded=0;dashed=1;exitX=1;exitY=0.5;exitDx=0;exitDy=0;entryX=0.5;entryY=0;entryDx=0;entryDy=0;" parent="1" source="UZKCKIMM1cQln6kZ_rzy-42" target="UZKCKIMM1cQln6kZ_rzy-40" edge="1">
          <mxGeometry width="50" height="50" relative="1" as="geometry">
            <mxPoint x="391" y="560" as="sourcePoint" />
            <mxPoint x="441" y="510" as="targetPoint" />
            <Array as="points">
              <mxPoint x="460" y="560" />
              <mxPoint x="460" y="470" />
              <mxPoint x="180" y="470" />
            </Array>
          </mxGeometry>
        </mxCell>
        <mxCell id="UZKCKIMM1cQln6kZ_rzy-46" value="Delete" style="edgeLabel;html=1;align=center;verticalAlign=middle;resizable=0;points=[];" parent="UZKCKIMM1cQln6kZ_rzy-45" vertex="1" connectable="0">
          <mxGeometry x="0.3246" relative="1" as="geometry">
            <mxPoint x="16" as="offset" />
          </mxGeometry>
        </mxCell>
        <mxCell id="UZKCKIMM1cQln6kZ_rzy-47" value="Update Page" style="whiteSpace=wrap;html=1;aspect=fixed;" parent="1" vertex="1">
          <mxGeometry x="311" y="680" width="80" height="80" as="geometry" />
        </mxCell>
        <mxCell id="UZKCKIMM1cQln6kZ_rzy-48" value="" style="endArrow=none;html=1;rounded=0;dashed=1;" parent="1" edge="1">
          <mxGeometry width="50" height="50" relative="1" as="geometry">
            <mxPoint x="30" y="499.66" as="sourcePoint" />
            <mxPoint x="60" y="499.66" as="targetPoint" />
          </mxGeometry>
        </mxCell>
        <mxCell id="UZKCKIMM1cQln6kZ_rzy-49" value="redirect" style="text;html=1;align=center;verticalAlign=middle;resizable=0;points=[];autosize=1;strokeColor=none;fillColor=none;" parent="1" vertex="1">
          <mxGeometry x="60" y="485" width="60" height="30" as="geometry" />
        </mxCell>
        <mxCell id="UZKCKIMM1cQln6kZ_rzy-50" value="" style="endArrow=classic;html=1;rounded=0;dashed=1;exitX=1;exitY=0.5;exitDx=0;exitDy=0;" parent="1" source="UZKCKIMM1cQln6kZ_rzy-47" edge="1">
          <mxGeometry width="50" height="50" relative="1" as="geometry">
            <mxPoint x="391" y="720" as="sourcePoint" />
            <mxPoint x="460" y="560" as="targetPoint" />
            <Array as="points">
              <mxPoint x="460" y="720" />
            </Array>
          </mxGeometry>
        </mxCell>
        <mxCell id="UZKCKIMM1cQln6kZ_rzy-51" value="Update" style="edgeLabel;html=1;align=center;verticalAlign=middle;resizable=0;points=[];" parent="UZKCKIMM1cQln6kZ_rzy-50" vertex="1" connectable="0">
          <mxGeometry x="0.2107" y="1" relative="1" as="geometry">
            <mxPoint as="offset" />
          </mxGeometry>
        </mxCell>
        <mxCell id="UZKCKIMM1cQln6kZ_rzy-52" value="" style="endArrow=none;html=1;rounded=0;" parent="1" edge="1">
          <mxGeometry width="50" height="50" relative="1" as="geometry">
            <mxPoint x="30" y="524.6600000000001" as="sourcePoint" />
            <mxPoint x="60" y="524.6600000000001" as="targetPoint" />
          </mxGeometry>
        </mxCell>
        <mxCell id="UZKCKIMM1cQln6kZ_rzy-53" value="fowarding" style="text;html=1;align=center;verticalAlign=middle;resizable=0;points=[];autosize=1;strokeColor=none;fillColor=none;" parent="1" vertex="1">
          <mxGeometry x="50" y="510" width="80" height="30" as="geometry" />
        </mxCell>
        <mxCell id="UZKCKIMM1cQln6kZ_rzy-54" value="조금 더 큰 흐름" style="text;html=1;align=center;verticalAlign=middle;resizable=0;points=[];autosize=1;strokeColor=none;fillColor=none;" parent="1" vertex="1">
          <mxGeometry x="211" y="775" width="110" height="30" as="geometry" />
        </mxCell>
      </root>
    </mxGraphModel>
  </diagram>
  <diagram name="Class Diagram - Product" id="oJIKgDH8NWRH0oZ029Za">
    <mxGraphModel dx="1434" dy="756" grid="1" gridSize="10" guides="1" tooltips="1" connect="1" arrows="1" fold="1" page="1" pageScale="1" pageWidth="1169" pageHeight="827" math="0" shadow="0">
      <root>
        <mxCell id="0" />
        <mxCell id="1" parent="0" />
        <mxCell id="afDt_r49-M6QYHOoE6Rl-1" value="ProductDAO" style="swimlane;fontStyle=1;align=center;verticalAlign=top;childLayout=stackLayout;horizontal=1;startSize=26;horizontalStack=0;resizeParent=1;resizeParentMax=0;resizeLast=0;collapsible=1;marginBottom=0;" parent="1" vertex="1">
          <mxGeometry x="770" y="130" width="260" height="190" as="geometry" />
        </mxCell>
        <mxCell id="afDt_r49-M6QYHOoE6Rl-2" value="- sqlSession: SqlSession&#xa;- NAMESPACE : String" style="text;strokeColor=none;fillColor=none;align=left;verticalAlign=top;spacingLeft=4;spacingRight=4;overflow=hidden;rotatable=0;points=[[0,0.5],[1,0.5]];portConstraint=eastwest;" parent="afDt_r49-M6QYHOoE6Rl-1" vertex="1">
          <mxGeometry y="26" width="260" height="44" as="geometry" />
        </mxCell>
        <mxCell id="afDt_r49-M6QYHOoE6Rl-3" value="" style="line;strokeWidth=1;fillColor=none;align=left;verticalAlign=middle;spacingTop=-1;spacingLeft=3;spacingRight=3;rotatable=0;labelPosition=right;points=[];portConstraint=eastwest;strokeColor=inherit;" parent="afDt_r49-M6QYHOoE6Rl-1" vertex="1">
          <mxGeometry y="70" width="260" height="10" as="geometry" />
        </mxCell>
        <mxCell id="afDt_r49-M6QYHOoE6Rl-4" value="+ getProductList(): List&lt;ProductDTO&gt;&#xa;+ getProductDetail(ProductDTO): ProductDTO&#xa;+ setProductAdd(ProductDTO): int" style="text;strokeColor=none;fillColor=none;align=left;verticalAlign=top;spacingLeft=4;spacingRight=4;overflow=hidden;rotatable=0;points=[[0,0.5],[1,0.5]];portConstraint=eastwest;" parent="afDt_r49-M6QYHOoE6Rl-1" vertex="1">
          <mxGeometry y="80" width="260" height="110" as="geometry" />
        </mxCell>
        <mxCell id="afDt_r49-M6QYHOoE6Rl-5" value="&lt;font style=&quot;font-size: 24px;&quot;&gt;Class Diagram&lt;/font&gt;" style="text;html=1;align=center;verticalAlign=middle;resizable=0;points=[];autosize=1;strokeColor=none;fillColor=none;" parent="1" vertex="1">
          <mxGeometry x="40" y="40" width="180" height="40" as="geometry" />
        </mxCell>
        <mxCell id="afDt_r49-M6QYHOoE6Rl-6" value="&lt;font style=&quot;font-size: 12px;&quot;&gt;Product&lt;br&gt;&lt;/font&gt;" style="text;html=1;align=center;verticalAlign=middle;resizable=0;points=[];autosize=1;strokeColor=none;fillColor=none;fontSize=24;" parent="1" vertex="1">
          <mxGeometry x="40" y="80" width="60" height="40" as="geometry" />
        </mxCell>
        <mxCell id="afDt_r49-M6QYHOoE6Rl-8" value="ProductService" style="swimlane;fontStyle=1;align=center;verticalAlign=top;childLayout=stackLayout;horizontal=1;startSize=26;horizontalStack=0;resizeParent=1;resizeParentMax=0;resizeLast=0;collapsible=1;marginBottom=0;fontSize=12;" parent="1" vertex="1">
          <mxGeometry x="370" y="130" width="340" height="200" as="geometry" />
        </mxCell>
        <mxCell id="afDt_r49-M6QYHOoE6Rl-9" value="- ProductDAO: ProductDAO" style="text;strokeColor=none;fillColor=none;align=left;verticalAlign=top;spacingLeft=4;spacingRight=4;overflow=hidden;rotatable=0;points=[[0,0.5],[1,0.5]];portConstraint=eastwest;fontSize=12;" parent="afDt_r49-M6QYHOoE6Rl-8" vertex="1">
          <mxGeometry y="26" width="340" height="26" as="geometry" />
        </mxCell>
        <mxCell id="afDt_r49-M6QYHOoE6Rl-10" value="" style="line;strokeWidth=1;fillColor=none;align=left;verticalAlign=middle;spacingTop=-1;spacingLeft=3;spacingRight=3;rotatable=0;labelPosition=right;points=[];portConstraint=eastwest;strokeColor=inherit;fontSize=12;" parent="afDt_r49-M6QYHOoE6Rl-8" vertex="1">
          <mxGeometry y="52" width="340" height="8" as="geometry" />
        </mxCell>
        <mxCell id="afDt_r49-M6QYHOoE6Rl-11" value="+ getProductList(): List&lt;ProductDTO&gt;&#xa;+ getProductDetail(ProductDTO): ProductDTO&#xa;+ setProductAdd(ProductDTO, List&lt;ProductOptionDTO&gt;): int" style="text;strokeColor=none;fillColor=none;align=left;verticalAlign=top;spacingLeft=4;spacingRight=4;overflow=hidden;rotatable=0;points=[[0,0.5],[1,0.5]];portConstraint=eastwest;fontSize=12;" parent="afDt_r49-M6QYHOoE6Rl-8" vertex="1">
          <mxGeometry y="60" width="340" height="140" as="geometry" />
        </mxCell>
        <mxCell id="afDt_r49-M6QYHOoE6Rl-12" value="ProductController" style="swimlane;fontStyle=1;align=center;verticalAlign=top;childLayout=stackLayout;horizontal=1;startSize=26;horizontalStack=0;resizeParent=1;resizeParentMax=0;resizeLast=0;collapsible=1;marginBottom=0;fontSize=12;" parent="1" vertex="1">
          <mxGeometry x="40" y="130" width="270" height="200" as="geometry" />
        </mxCell>
        <mxCell id="afDt_r49-M6QYHOoE6Rl-13" value="- ProductService: ProductService" style="text;strokeColor=none;fillColor=none;align=left;verticalAlign=top;spacingLeft=4;spacingRight=4;overflow=hidden;rotatable=0;points=[[0,0.5],[1,0.5]];portConstraint=eastwest;fontSize=12;" parent="afDt_r49-M6QYHOoE6Rl-12" vertex="1">
          <mxGeometry y="26" width="270" height="26" as="geometry" />
        </mxCell>
        <mxCell id="afDt_r49-M6QYHOoE6Rl-14" value="" style="line;strokeWidth=1;fillColor=none;align=left;verticalAlign=middle;spacingTop=-1;spacingLeft=3;spacingRight=3;rotatable=0;labelPosition=right;points=[];portConstraint=eastwest;strokeColor=inherit;fontSize=12;" parent="afDt_r49-M6QYHOoE6Rl-12" vertex="1">
          <mxGeometry y="52" width="270" height="8" as="geometry" />
        </mxCell>
        <mxCell id="afDt_r49-M6QYHOoE6Rl-15" value="+ getProductList(): ModelAndView&#xa;+ getProductDetail(ProductDTO): String&#xa;+ setProductAdd(): Void&#xa;+ setProductAdd(ProductDTO): String" style="text;strokeColor=none;fillColor=none;align=left;verticalAlign=top;spacingLeft=4;spacingRight=4;overflow=hidden;rotatable=0;points=[[0,0.5],[1,0.5]];portConstraint=eastwest;fontSize=12;" parent="afDt_r49-M6QYHOoE6Rl-12" vertex="1">
          <mxGeometry y="60" width="270" height="140" as="geometry" />
        </mxCell>
        <mxCell id="afDt_r49-M6QYHOoE6Rl-17" value="" style="edgeStyle=orthogonalEdgeStyle;rounded=0;orthogonalLoop=1;jettySize=auto;html=1;fontSize=12;" parent="1" source="afDt_r49-M6QYHOoE6Rl-15" target="afDt_r49-M6QYHOoE6Rl-11" edge="1">
          <mxGeometry relative="1" as="geometry" />
        </mxCell>
        <mxCell id="afDt_r49-M6QYHOoE6Rl-20" value="ProductControll는&lt;br&gt;ProductService를 참조하겠다&lt;br&gt;= 즉, 필요하다. 의존적이다" style="text;html=1;align=center;verticalAlign=middle;resizable=0;points=[];autosize=1;strokeColor=none;fillColor=none;fontSize=12;" parent="1" vertex="1">
          <mxGeometry x="250" y="330" width="180" height="60" as="geometry" />
        </mxCell>
        <mxCell id="afDt_r49-M6QYHOoE6Rl-21" value="ProductService는&lt;br&gt;ProductDAO를 참조하겠다.&lt;br&gt;= 즉, 필요하다. 의존적이다" style="text;html=1;align=center;verticalAlign=middle;resizable=0;points=[];autosize=1;strokeColor=none;fillColor=none;fontSize=12;" parent="1" vertex="1">
          <mxGeometry x="660" y="329" width="170" height="60" as="geometry" />
        </mxCell>
        <mxCell id="afDt_r49-M6QYHOoE6Rl-37" value="" style="edgeStyle=orthogonalEdgeStyle;rounded=0;orthogonalLoop=1;jettySize=auto;html=1;fontSize=12;" parent="1" source="afDt_r49-M6QYHOoE6Rl-11" target="afDt_r49-M6QYHOoE6Rl-4" edge="1">
          <mxGeometry relative="1" as="geometry" />
        </mxCell>
      </root>
    </mxGraphModel>
  </diagram>
  <diagram name="Class Diagram - Member" id="LSad5rz9S8A5LqyNK1hd">
    <mxGraphModel dx="1434" dy="756" grid="1" gridSize="10" guides="1" tooltips="1" connect="1" arrows="1" fold="1" page="1" pageScale="1" pageWidth="1169" pageHeight="827" math="0" shadow="0">
      <root>
        <mxCell id="0" />
        <mxCell id="1" parent="0" />
        <mxCell id="8meTgkc3xByESBasRRkq-5" value="&lt;font style=&quot;font-size: 24px;&quot;&gt;Class Diagram&lt;/font&gt;" style="text;html=1;align=center;verticalAlign=middle;resizable=0;points=[];autosize=1;strokeColor=none;fillColor=none;" parent="1" vertex="1">
          <mxGeometry x="40" y="40" width="180" height="40" as="geometry" />
        </mxCell>
        <mxCell id="8meTgkc3xByESBasRRkq-19" value="MemberDAO&#xa;" style="swimlane;fontStyle=1;align=center;verticalAlign=top;childLayout=stackLayout;horizontal=1;startSize=26;horizontalStack=0;resizeParent=1;resizeParentMax=0;resizeLast=0;collapsible=1;marginBottom=0;fontSize=12;" parent="1" vertex="1">
          <mxGeometry x="780" y="130" width="260" height="170" as="geometry" />
        </mxCell>
        <mxCell id="8meTgkc3xByESBasRRkq-20" value="- sqlSession: SqlSession&#xa;- NAMESPACE: String" style="text;strokeColor=none;fillColor=none;align=left;verticalAlign=top;spacingLeft=4;spacingRight=4;overflow=hidden;rotatable=0;points=[[0,0.5],[1,0.5]];portConstraint=eastwest;fontSize=12;" parent="8meTgkc3xByESBasRRkq-19" vertex="1">
          <mxGeometry y="26" width="260" height="44" as="geometry" />
        </mxCell>
        <mxCell id="8meTgkc3xByESBasRRkq-21" value="" style="line;strokeWidth=1;fillColor=none;align=left;verticalAlign=middle;spacingTop=-1;spacingLeft=3;spacingRight=3;rotatable=0;labelPosition=right;points=[];portConstraint=eastwest;strokeColor=inherit;fontSize=12;" parent="8meTgkc3xByESBasRRkq-19" vertex="1">
          <mxGeometry y="70" width="260" height="8" as="geometry" />
        </mxCell>
        <mxCell id="8meTgkc3xByESBasRRkq-22" value="+ setMemberAdd(MemberDTO): int" style="text;strokeColor=none;fillColor=none;align=left;verticalAlign=top;spacingLeft=4;spacingRight=4;overflow=hidden;rotatable=0;points=[[0,0.5],[1,0.5]];portConstraint=eastwest;fontSize=12;" parent="8meTgkc3xByESBasRRkq-19" vertex="1">
          <mxGeometry y="78" width="260" height="92" as="geometry" />
        </mxCell>
        <mxCell id="8meTgkc3xByESBasRRkq-23" value="Member" style="text;html=1;align=center;verticalAlign=middle;resizable=0;points=[];autosize=1;strokeColor=none;fillColor=none;fontSize=12;" parent="1" vertex="1">
          <mxGeometry x="40" y="90" width="70" height="30" as="geometry" />
        </mxCell>
        <mxCell id="8meTgkc3xByESBasRRkq-24" value="MemberService" style="swimlane;fontStyle=1;align=center;verticalAlign=top;childLayout=stackLayout;horizontal=1;startSize=26;horizontalStack=0;resizeParent=1;resizeParentMax=0;resizeLast=0;collapsible=1;marginBottom=0;fontSize=12;" parent="1" vertex="1">
          <mxGeometry x="390" y="130" width="330" height="170" as="geometry" />
        </mxCell>
        <mxCell id="8meTgkc3xByESBasRRkq-25" value="- memberDAO: MemberDAO" style="text;strokeColor=none;fillColor=none;align=left;verticalAlign=top;spacingLeft=4;spacingRight=4;overflow=hidden;rotatable=0;points=[[0,0.5],[1,0.5]];portConstraint=eastwest;fontSize=12;" parent="8meTgkc3xByESBasRRkq-24" vertex="1">
          <mxGeometry y="26" width="330" height="26" as="geometry" />
        </mxCell>
        <mxCell id="8meTgkc3xByESBasRRkq-26" value="" style="line;strokeWidth=1;fillColor=none;align=left;verticalAlign=middle;spacingTop=-1;spacingLeft=3;spacingRight=3;rotatable=0;labelPosition=right;points=[];portConstraint=eastwest;strokeColor=inherit;fontSize=12;" parent="8meTgkc3xByESBasRRkq-24" vertex="1">
          <mxGeometry y="52" width="330" height="8" as="geometry" />
        </mxCell>
        <mxCell id="8meTgkc3xByESBasRRkq-27" value="+ setMemberAdd(memberDTO): int" style="text;strokeColor=none;fillColor=none;align=left;verticalAlign=top;spacingLeft=4;spacingRight=4;overflow=hidden;rotatable=0;points=[[0,0.5],[1,0.5]];portConstraint=eastwest;fontSize=12;" parent="8meTgkc3xByESBasRRkq-24" vertex="1">
          <mxGeometry y="60" width="330" height="110" as="geometry" />
        </mxCell>
        <mxCell id="8meTgkc3xByESBasRRkq-28" value="MemberController" style="swimlane;fontStyle=1;align=center;verticalAlign=top;childLayout=stackLayout;horizontal=1;startSize=26;horizontalStack=0;resizeParent=1;resizeParentMax=0;resizeLast=0;collapsible=1;marginBottom=0;fontSize=12;" parent="1" vertex="1">
          <mxGeometry x="50" y="130" width="270" height="170" as="geometry" />
        </mxCell>
        <mxCell id="8meTgkc3xByESBasRRkq-29" value="- memberService: MemberService" style="text;strokeColor=none;fillColor=none;align=left;verticalAlign=top;spacingLeft=4;spacingRight=4;overflow=hidden;rotatable=0;points=[[0,0.5],[1,0.5]];portConstraint=eastwest;fontSize=12;" parent="8meTgkc3xByESBasRRkq-28" vertex="1">
          <mxGeometry y="26" width="270" height="26" as="geometry" />
        </mxCell>
        <mxCell id="8meTgkc3xByESBasRRkq-30" value="" style="line;strokeWidth=1;fillColor=none;align=left;verticalAlign=middle;spacingTop=-1;spacingLeft=3;spacingRight=3;rotatable=0;labelPosition=right;points=[];portConstraint=eastwest;strokeColor=inherit;fontSize=12;" parent="8meTgkc3xByESBasRRkq-28" vertex="1">
          <mxGeometry y="52" width="270" height="8" as="geometry" />
        </mxCell>
        <mxCell id="8meTgkc3xByESBasRRkq-31" value="+ setMemberAdd(): Void&#xa;+ setMemberAdd(MemberDTO): String" style="text;strokeColor=none;fillColor=none;align=left;verticalAlign=top;spacingLeft=4;spacingRight=4;overflow=hidden;rotatable=0;points=[[0,0.5],[1,0.5]];portConstraint=eastwest;fontSize=12;" parent="8meTgkc3xByESBasRRkq-28" vertex="1">
          <mxGeometry y="60" width="270" height="110" as="geometry" />
        </mxCell>
        <mxCell id="8meTgkc3xByESBasRRkq-33" value="" style="edgeStyle=orthogonalEdgeStyle;rounded=0;orthogonalLoop=1;jettySize=auto;html=1;fontSize=12;" parent="1" source="8meTgkc3xByESBasRRkq-31" target="8meTgkc3xByESBasRRkq-27" edge="1">
          <mxGeometry relative="1" as="geometry" />
        </mxCell>
        <mxCell id="8meTgkc3xByESBasRRkq-34" value="" style="edgeStyle=orthogonalEdgeStyle;rounded=0;orthogonalLoop=1;jettySize=auto;html=1;fontSize=12;" parent="1" source="8meTgkc3xByESBasRRkq-27" target="8meTgkc3xByESBasRRkq-22" edge="1">
          <mxGeometry relative="1" as="geometry" />
        </mxCell>
      </root>
    </mxGraphModel>
  </diagram>
  <diagram id="3InIwJ8d-Wb8pKKtj7sz" name="Class Diagram - BankBook">
    <mxGraphModel dx="1434" dy="756" grid="1" gridSize="10" guides="1" tooltips="1" connect="1" arrows="1" fold="1" page="1" pageScale="1" pageWidth="1169" pageHeight="827" math="0" shadow="0">
      <root>
        <mxCell id="0" />
        <mxCell id="1" parent="0" />
        <mxCell id="59W39HSvaZz6ngL0H4Sn-1" value="BankBook" style="text;html=1;align=center;verticalAlign=middle;resizable=0;points=[];autosize=1;strokeColor=none;fillColor=none;" vertex="1" parent="1">
          <mxGeometry x="40" y="90" width="80" height="30" as="geometry" />
        </mxCell>
        <mxCell id="59W39HSvaZz6ngL0H4Sn-2" value="BankBookDAO" style="swimlane;fontStyle=1;align=center;verticalAlign=top;childLayout=stackLayout;horizontal=1;startSize=26;horizontalStack=0;resizeParent=1;resizeParentMax=0;resizeLast=0;collapsible=1;marginBottom=0;" vertex="1" parent="1">
          <mxGeometry x="780" y="131" width="300" height="200" as="geometry" />
        </mxCell>
        <mxCell id="59W39HSvaZz6ngL0H4Sn-3" value="- sqlSession: SqlSession&#xa;- NAMESPACE: String" style="text;strokeColor=none;fillColor=none;align=left;verticalAlign=top;spacingLeft=4;spacingRight=4;overflow=hidden;rotatable=0;points=[[0,0.5],[1,0.5]];portConstraint=eastwest;" vertex="1" parent="59W39HSvaZz6ngL0H4Sn-2">
          <mxGeometry y="26" width="300" height="44" as="geometry" />
        </mxCell>
        <mxCell id="59W39HSvaZz6ngL0H4Sn-4" value="" style="line;strokeWidth=1;fillColor=none;align=left;verticalAlign=middle;spacingTop=-1;spacingLeft=3;spacingRight=3;rotatable=0;labelPosition=right;points=[];portConstraint=eastwest;strokeColor=inherit;" vertex="1" parent="59W39HSvaZz6ngL0H4Sn-2">
          <mxGeometry y="70" width="300" height="8" as="geometry" />
        </mxCell>
        <mxCell id="59W39HSvaZz6ngL0H4Sn-5" value="+ getBankBookList() : List&lt;BankBookDTO&gt;&#xa;+ getBankBookDetail(BankBookDTO): BankBookDTO&#xa;+ setBankBookAdd(BankBookDTO): int&#xa;+ setBankBookUpdate(BankBookDTO): int&#xa;+ setBankBookDelete(BankBookDTO): int" style="text;strokeColor=none;fillColor=none;align=left;verticalAlign=top;spacingLeft=4;spacingRight=4;overflow=hidden;rotatable=0;points=[[0,0.5],[1,0.5]];portConstraint=eastwest;" vertex="1" parent="59W39HSvaZz6ngL0H4Sn-2">
          <mxGeometry y="78" width="300" height="122" as="geometry" />
        </mxCell>
        <mxCell id="59W39HSvaZz6ngL0H4Sn-6" value="BankBookService" style="swimlane;fontStyle=1;align=center;verticalAlign=top;childLayout=stackLayout;horizontal=1;startSize=26;horizontalStack=0;resizeParent=1;resizeParentMax=0;resizeLast=0;collapsible=1;marginBottom=0;" vertex="1" parent="1">
          <mxGeometry x="410" y="131" width="300" height="200" as="geometry" />
        </mxCell>
        <mxCell id="59W39HSvaZz6ngL0H4Sn-7" value="- bankBookDAO: BankBookDAO" style="text;strokeColor=none;fillColor=none;align=left;verticalAlign=top;spacingLeft=4;spacingRight=4;overflow=hidden;rotatable=0;points=[[0,0.5],[1,0.5]];portConstraint=eastwest;" vertex="1" parent="59W39HSvaZz6ngL0H4Sn-6">
          <mxGeometry y="26" width="300" height="44" as="geometry" />
        </mxCell>
        <mxCell id="59W39HSvaZz6ngL0H4Sn-8" value="" style="line;strokeWidth=1;fillColor=none;align=left;verticalAlign=middle;spacingTop=-1;spacingLeft=3;spacingRight=3;rotatable=0;labelPosition=right;points=[];portConstraint=eastwest;strokeColor=inherit;" vertex="1" parent="59W39HSvaZz6ngL0H4Sn-6">
          <mxGeometry y="70" width="300" height="8" as="geometry" />
        </mxCell>
        <mxCell id="59W39HSvaZz6ngL0H4Sn-9" value="+ getBankBookList() : List&lt;BankBookDTO&gt;&#xa;+ getBankBookDetail(BankBookDTO): BankBookDTO&#xa;+ setBankBookAdd(BankBookDTO): int&#xa;+ setBankBookUpdate(BankBookDTO): int&#xa;+ setBankBookDelete(BankBookDTO): int" style="text;strokeColor=none;fillColor=none;align=left;verticalAlign=top;spacingLeft=4;spacingRight=4;overflow=hidden;rotatable=0;points=[[0,0.5],[1,0.5]];portConstraint=eastwest;" vertex="1" parent="59W39HSvaZz6ngL0H4Sn-6">
          <mxGeometry y="78" width="300" height="122" as="geometry" />
        </mxCell>
        <mxCell id="59W39HSvaZz6ngL0H4Sn-10" value="" style="edgeStyle=orthogonalEdgeStyle;rounded=0;orthogonalLoop=1;jettySize=auto;html=1;" edge="1" parent="1" source="59W39HSvaZz6ngL0H4Sn-9" target="59W39HSvaZz6ngL0H4Sn-5">
          <mxGeometry relative="1" as="geometry" />
        </mxCell>
        <mxCell id="59W39HSvaZz6ngL0H4Sn-11" value="BankBookService가 BankBookDAO를 참조하겠다&lt;br&gt;(= BankBookService내에 BankBookDAO객체가 있어야한다)" style="text;html=1;align=center;verticalAlign=middle;resizable=0;points=[];autosize=1;strokeColor=none;fillColor=none;" vertex="1" parent="1">
          <mxGeometry x="570" y="331" width="340" height="40" as="geometry" />
        </mxCell>
        <mxCell id="59W39HSvaZz6ngL0H4Sn-12" value="BankBookController" style="swimlane;fontStyle=1;align=center;verticalAlign=top;childLayout=stackLayout;horizontal=1;startSize=26;horizontalStack=0;resizeParent=1;resizeParentMax=0;resizeLast=0;collapsible=1;marginBottom=0;" vertex="1" parent="1">
          <mxGeometry x="50" y="131" width="300" height="200" as="geometry" />
        </mxCell>
        <mxCell id="59W39HSvaZz6ngL0H4Sn-13" value="- bankBookService: BankBookService" style="text;strokeColor=none;fillColor=none;align=left;verticalAlign=top;spacingLeft=4;spacingRight=4;overflow=hidden;rotatable=0;points=[[0,0.5],[1,0.5]];portConstraint=eastwest;" vertex="1" parent="59W39HSvaZz6ngL0H4Sn-12">
          <mxGeometry y="26" width="300" height="44" as="geometry" />
        </mxCell>
        <mxCell id="59W39HSvaZz6ngL0H4Sn-14" value="" style="line;strokeWidth=1;fillColor=none;align=left;verticalAlign=middle;spacingTop=-1;spacingLeft=3;spacingRight=3;rotatable=0;labelPosition=right;points=[];portConstraint=eastwest;strokeColor=inherit;" vertex="1" parent="59W39HSvaZz6ngL0H4Sn-12">
          <mxGeometry y="70" width="300" height="8" as="geometry" />
        </mxCell>
        <mxCell id="59W39HSvaZz6ngL0H4Sn-15" value="+ getBankBookList() : ModelAndView&#xa;+ getBankBookDetail(BankBookDTO): ModelAndView&#xa;+ setBankBookAdd(BankBookDTO): ModelAndView&#xa;+ setBankBookUpdate(BankBookDTO): ModelAndView&#xa;+ setBankBookDelete(BankBookDTO): ModelAndView" style="text;strokeColor=none;fillColor=none;align=left;verticalAlign=top;spacingLeft=4;spacingRight=4;overflow=hidden;rotatable=0;points=[[0,0.5],[1,0.5]];portConstraint=eastwest;" vertex="1" parent="59W39HSvaZz6ngL0H4Sn-12">
          <mxGeometry y="78" width="300" height="122" as="geometry" />
        </mxCell>
        <mxCell id="59W39HSvaZz6ngL0H4Sn-16" value="Controller의 메서드가 리턴하는 타입&lt;br&gt;- void, String, ModelAndView&lt;br&gt;&lt;br&gt;모두다 같은 타입으로 통일해도 상관없다." style="text;html=1;align=center;verticalAlign=middle;resizable=0;points=[];autosize=1;strokeColor=none;fillColor=none;" vertex="1" parent="1">
          <mxGeometry x="70" y="331" width="240" height="70" as="geometry" />
        </mxCell>
        <mxCell id="59W39HSvaZz6ngL0H4Sn-17" value="" style="edgeStyle=orthogonalEdgeStyle;rounded=0;orthogonalLoop=1;jettySize=auto;html=1;" edge="1" parent="1" source="59W39HSvaZz6ngL0H4Sn-15" target="59W39HSvaZz6ngL0H4Sn-9">
          <mxGeometry relative="1" as="geometry" />
        </mxCell>
        <mxCell id="HUP1ulZKVKruywNHOhGj-1" value="&lt;font style=&quot;font-size: 24px;&quot;&gt;Class Diagram&lt;/font&gt;" style="text;html=1;align=center;verticalAlign=middle;resizable=0;points=[];autosize=1;strokeColor=none;fillColor=none;" vertex="1" parent="1">
          <mxGeometry x="40" y="40" width="180" height="40" as="geometry" />
        </mxCell>
      </root>
    </mxGraphModel>
  </diagram>
</mxfile>
